# xmcd CD database file
#
# Track frame offsets:
#	150
#	13175
#	28685
#	42170
#	61500
#	76365
#	95240
#	113197
#	131672
#	153785
#	167370
#	186995
#	207435
#
# Disc length: 3096 seconds
#
# Revision: 3
# Processed by: cddbd v1.5.1PL2 Copyright (c) Steve Scherf et al.
# Submitted via: CDex 1.51
#
DISCID=a50c160d
DTITLE=Maroon5 - Songs About Jane
DYEAR=2003
DGENRE=Rock
TTITLE0=Harder To Breathe
TTITLE1=This Love
TTITLE2=Shiver
TTITLE3=She Will Be Loved
TTITLE4=Tangled
TTITLE5=The Sun
TTITLE6=Must Get Out
TTITLE7=Sunday Morning
TTITLE8=Secret
TTITLE9=Through With You
TTITLE10=Not Coming Home
TTITLE11=Sweetest Goodbye
TTITLE12=Ragdoll (Bonus Track)
EXTD=YEAR: 2003
EXTT0=
EXTT1=
EXTT2=
EXTT3=
EXTT4=
EXTT5=
EXTT6=
EXTT7=
EXTT8=
EXTT9=
EXTT10=
EXTT11=
EXTT12=
PLAYORDER=
